<svg xmlns:dc="http://purl.org/dc/elements/1.1/" xmlns:cc="http://web.resource.org/cc/" xmlns:rdf="http://www.w3.org/1999/02/22-rdf-syntax-ns#" xmlns:svg="http://www.w3.org/2000/svg" xmlns="http://www.w3.org/2000/svg" xmlns:sodipodi="http://inkscape.sourceforge.net/DTD/sodipodi-0.dtd" xmlns:inkscape="http://www.inkscape.org/namespaces/inkscape" sodipodi:version="0.32" inkscape:version="0.43" width="793.7008056640625" height="1122.5196533203125" sodipodi:docbase="/home/sjoerd0/docs/images/stratego" sodipodi:docname="bom.svg" style=""><rect id="backgroundrect" width="100%" height="100%" x="0" y="0" fill="none" stroke="none"/>
  <metadata id="metadata2348">
    <rdf:RDF>
      <cc:Work rdf:about="">
        <dc:format>image/svg+xml</dc:format>
        <dc:type rdf:resource="http://purl.org/dc/dcmitype/StillImage"/>
      </cc:Work>
    </rdf:RDF>
  </metadata>
  <defs id="defs2346"/>
  <sodipodi:namedview inkscape:window-height="946" inkscape:window-width="1129" inkscape:pageshadow="2" inkscape:pageopacity="0.0" borderopacity="1.0" bordercolor="#666666" pagecolor="#ffffff" id="base" inkscape:zoom="0.25129935" inkscape:cx="498.62816" inkscape:cy="860.32773" inkscape:window-x="135" inkscape:window-y="0" inkscape:current-layer="svg2343"/>
  
<g class="currentLayer" style=""><title>Layer 1</title><path style="opacity:1;fill:#000000;fill-opacity:1;stroke:none;stroke-opacity:1" d="M517.9651968041992,176.00554340209962 C497.5090668041992,177.9565934020996 470.3482668041992,190.11389340209962 447.5589468041992,240.63054340209962 C446.97618680419924,239.4225234020996 427.97434680419923,200.72071340209962 383.0276968041992,183.06804340209962 C384.3831068041992,184.97733340209962 398.3619568041992,207.35626340209961 367.9964468041992,279.47429340209965 C367.9964468041992,279.47429340209965 351.0659368041992,239.6629234020996 304.3089468041992,209.81804340209962 C290.1911068041992,285.7014434020996 285.4713568041992,318.53783340209964 308.1839468041992,391.6305434020996 C304.5680168041992,409.0432634020996 303.5713268041992,425.5858634020996 314.2776968041992,437.6305434020996 C323.0071568041992,447.4512134020996 335.30325680419924,458.0291834020996 333.8089468041992,464.6617934020996 C242.64912680419923,495.5254034020996 176.96519680419922,581.8481934020996 176.96519680419922,683.3805434020996 C176.96519680419922,810.7823734020997 280.3758568041992,914.1617734020996 407.7776968041992,914.1617934020996 C535.1795268041992,914.1617834020996 638.5589568041992,810.7824034020996 638.5589468041992,683.3805434020996 C638.5589668041993,582.3305234020996 573.5339768041993,496.3348634020996 483.0589468041992,465.0992934020996 C482.21326680419924,453.5571034020996 485.3204468041992,447.7303634020996 500.3089468041992,440.6305434020996 C519.2107168041991,431.6770734020996 512.2525168041992,393.8758234020996 489.3714468041992,380.9430434020996 C487.1240368041992,379.67276340209963 483.6876268041992,378.2495434020996 479.3089468041992,376.7555434020996 C479.6526168041992,360.8343134020996 491.9666768041992,345.7033734020996 504.2776968041992,334.1617934020996 C520.1949668041992,319.2393534020996 524.1635068041992,277.4801434020996 514.2151968041992,260.56804340209965 C504.2669068041992,243.6559434020996 502.95101680419924,222.4033134020996 518.2151968041992,176.00554340209962 C518.1351668041992,176.01288340209962 518.0454268041992,175.9978934020996 517.9651968041992,176.00554340209962 zM409.7776968041992,229.72429340209962 C432.6587868041992,260.5640034020996 427.67832680419923,309.2919634020996 438.6214468041992,310.2867934020996 C449.5645668041992,311.2816234020996 455.5474768041992,254.57412340209962 483.4026968041992,231.69304340209962 C499.3199568041992,272.48105340209963 509.2527468041992,299.35355340209964 480.4026968041992,324.2242934020996 C451.55262680419924,349.0950334020996 454.2291668041992,364.9909734020996 453.5276968041992,382.9117934020996 C452.86341680419923,399.8821334020996 451.5650268041992,408.8023034020996 428.6839468041992,411.7867934020996 C405.8028668041992,414.7712934020996 386.8820168041992,382.9187834020996 382.9026968041992,336.1617934020996 C378.9233768041992,289.4048034020996 413.7570168041992,249.62088340209962 409.7776968041992,229.72429340209962 zM325.2151968041992,252.59929340209962 C325.2151868041992,252.59929340209962 340.14189680419923,276.4889034020996 350.0901968041992,303.3492934020996 C360.0384968041992,330.2096934020996 355.0629968041992,359.0504934020996 385.9026968041992,409.7867934020996 C385.89916680419924,409.7897134020996 385.87446680419924,409.8153534020996 385.8714468041992,409.8180434020996 C385.8668968041992,409.8233934020996 385.8457568041992,409.8434734020996 385.8401968041992,409.8492934020996 C385.83432680419924,409.8550034020996 385.8150268041992,409.8757434020996 385.8089468041992,409.8805434020996 C385.7933168041992,409.8885934020996 385.7587368041992,409.9058134020996 385.7464468041992,409.9117934020996 C383.5699468041992,410.8801334020996 359.7022168041992,411.3576934020996 333.1526968041992,382.9117934020996 C305.2974768041992,353.0669034020996 304.3237568041992,311.2942234020996 325.2151968041992,252.59929340209962 zM380.4026968041992,492.3805434020996 C306.7853068041992,579.9255234020997 375.45817680419924,584.7366134020996 430.6526968041992,565.4742934020996 C485.6942568041992,546.2653434020997 606.2250968041992,574.4264734020996 620.1526968041992,667.4430434020996 C580.8569668041993,625.6601934020996 499.9755468041992,608.8686934020997 424.6839468041992,686.8492934020996 C355.0458768041992,758.9744234020997 255.0646368041992,822.8591034020997 213.27769680419922,719.6930434020996 C183.4640668041992,646.0874334020996 227.69636680419922,505.3133234020996 380.4026968041992,492.3805434020996 zM544.5589468041992,798.7867934020996 C523.1700968041991,871.4093334020996 434.1314668041992,898.7545534020996 375.9339468041992,856.4742934020996 C414.7322868041992,851.5001334020997 500.2890368041992,822.1653134020996 544.5589468041992,798.7867934020996 zM264.5276968041992,816.1930434020996 C284.9216868041992,826.1413234020996 302.3110768041992,838.0568034020996 314.7464468041992,859.9430434020996 C292.3627668041992,856.4611034020996 271.4915068041992,839.0741134020996 264.5276968041992,816.1930434020996 z" id="path2352" class=""/></g></svg>