<svg xmlns:dc="http://purl.org/dc/elements/1.1/" xmlns:cc="http://web.resource.org/cc/" xmlns:rdf="http://www.w3.org/1999/02/22-rdf-syntax-ns#" xmlns:svg="http://www.w3.org/2000/svg" xmlns="http://www.w3.org/2000/svg" xmlns:sodipodi="http://inkscape.sourceforge.net/DTD/sodipodi-0.dtd" xmlns:inkscape="http://www.inkscape.org/namespaces/inkscape" sodipodi:version="0.32" inkscape:version="0.43" width="793.7008056640625" height="1122.5196533203125" sodipodi:docbase="/home/sjoerd0/docs/images/stratego" sodipodi:docname="vlag.svg" version="1.0" style=""><rect id="backgroundrect" width="100%" height="100%" x="0" y="0" fill="none" stroke="none"/>
  <metadata id="metadata2410">
    <rdf:RDF>
      <cc:Work rdf:about="">
        <dc:format>image/svg+xml</dc:format>
        <dc:type rdf:resource="http://purl.org/dc/dcmitype/StillImage"/>
      </cc:Work>
    </rdf:RDF>
  </metadata>
  <defs id="defs2408"/>
  <sodipodi:namedview inkscape:window-height="946" inkscape:window-width="1075" inkscape:pageshadow="2" inkscape:pageopacity="0.0" borderopacity="1.0" bordercolor="#666666" pagecolor="#ffffff" id="base" inkscape:zoom="0.50259871" inkscape:cx="403.2731" inkscape:cy="901.61081" inkscape:window-x="189" inkscape:window-y="0" inkscape:current-layer="layer4"/>
  
<g class="currentLayer" style=""><title>Layer 1</title><g inkscape:groupmode="layer" id="layer4" inkscape:label="Vector" class="">
    <path style="opacity:1;fill:#000000;fill-opacity:1;fill-rule:evenodd;stroke:none;stroke-width:1px;stroke-linecap:butt;stroke-linejoin:miter;stroke-opacity:1" d="M138.70445545892335,237.8691063588562 C138.70167545892332,237.8719703588562 138.67646545892336,237.8968583588562 138.67320545892335,237.9003563588562 C133.69905545892334,238.89518735885622 119.75099545892334,325.43586735885617 128.70445545892335,350.30660735885624 C132.73092545892334,361.4912173588562 141.39945545892334,371.0605173588562 149.70445945892334,378.21285735885624 C110.99352545892333,447.6475273588562 135.42853545892333,506.0812873588562 166.51695945892334,530.3691073588561 C198.35148945892334,555.2398573588562 223.22604945892334,584.0761573588562 203.32945945892334,617.9003573588561 C183.43286945892334,651.7245473588562 164.01329945892334,631.1654473588562 159.54820945892334,655.7128573588562 C155.21505945892335,679.5348873588562 201.39847945892333,724.1391873588562 223.23570945892334,722.3691073588562 C246.09728945892334,720.5160173588562 230.18286945892334,676.5930273588561 250.07945945892334,677.5878573588562 L325.70445945892334,885.5253573588562 L371.45445945892334,878.5566073588562 L312.04820945892334,693.8691073588562 C376.90242945892334,700.4383273588562 387.3031894589233,682.7161673588562 414.39195945892334,681.4316073588562 C449.55311945892333,679.7642473588562 470.65562945892333,694.0891573588563 508.64195945892334,691.2753573588562 C546.6282994589233,688.4615273588562 552.2767194589234,678.6243173588562 598.7044594589233,667.3691073588562 C645.1322494589233,656.1138873588562 652.1660494589233,674.4029573588562 667.6419494589234,668.7753573588562 C683.1178494589234,663.1477473588562 691.3819494589234,642.9681773588562 670.4544494589234,588.5566073588561 C649.3509494589233,533.6874673588562 634.6113494589233,523.0695173588563 616.9857094589233,481.6503573588562 C595.5504194589233,431.2787573588562 613.9194494589234,409.3406473588562 591.6419594589233,356.43160735885624 C573.3927794589233,313.0897873588562 562.5625194589234,303.9300673588562 554.6107094589233,304.27535735885624 C554.6048194589233,304.2756173588562 554.5857694589233,304.2753773588562 554.5794594589233,304.27535735885624 C554.5662594589234,304.2749473588562 554.5306194589234,304.2758873588562 554.5169594589233,304.27535735885624 C554.5101994589234,304.27520735885616 554.4922894589233,304.2752873588562 554.4857094589233,304.27535735885624 C554.4825694589233,304.2755573588562 554.4607594589233,304.2755073588562 554.4544594589233,304.27535735885624 C554.4516794589233,304.27529735885616 554.4264094589233,304.2754873588562 554.4232094589233,304.27535735885624 C554.4204294589233,304.27529735885616 554.3952394589234,304.2755473588562 554.3919594589233,304.27535735885624 C554.3922694589234,304.27720735885623 554.3920594589233,304.2996173588562 554.3919594589233,304.30660735885624 C554.3886794589233,304.30642735885624 554.3634894589234,304.3066673588562 554.3607094589233,304.30660735885624 C554.3542994589234,304.3064373588562 554.3323794589234,304.3063973588562 554.3294594589233,304.30660735885624 C552.5819694589234,304.4322573588562 550.9712794589234,305.0169473588562 549.4544594589233,305.77535735885624 C541.0130494589233,309.9960673588562 514.2871494589233,328.3053073588562 470.67320945892334,331.11910735885624 C427.0592694589233,333.93291735885623 396.10029945892336,319.83590735885616 351.07945945892334,324.05660735885624 C306.05860945892334,328.2773073588562 300.4121594589233,353.6165073588562 256.79820945892334,359.24410735885624 C234.44004945892334,362.1290373588562 218.00685945892334,360.59753735885624 207.29820945892334,358.40035735885624 C211.53413945892333,344.51516735885616 214.33542945892333,335.7259973588562 210.29820945892334,322.46285735885624 C205.54689945892335,306.8537673588562 144.13155545892334,237.42784835885618 138.73570545892335,237.8691063588562 C138.73213545892332,237.8689673588562 138.70730545892334,237.8691113588562 138.70445545892335,237.8691063588562 zM157.57945945892334,292.58785735885624 C173.49672945892334,303.53098735885624 189.40745945892334,322.4520673588562 192.39195945892334,332.40035735885624 C195.37643945892333,342.34864735885617 186.42344945892333,362.2283673588562 180.45445945892334,365.21285735885624 C174.48548945892333,368.1973473588562 152.58485945892335,361.2342173588562 147.61070945892334,347.30660735885624 C142.63656545892334,333.37899735885617 148.62597945892333,321.4379173588562 157.57945945892334,292.58785735885624 zM543.8294594589233,335.86910735885624 C543.8323094589234,335.8691673588562 543.8571394589233,335.86877735885616 543.8607094589233,335.86910735885624 C543.8635294589233,335.8691573588562 543.8885494589233,335.86877735885616 543.8919594589233,335.86910735885624 C543.8947694589233,335.8691473588562 543.9199394589234,335.8687973588562 543.9232094589233,335.86910735885624 C543.9259194589233,335.86913735885616 543.9514894589233,335.8688473588562 543.9544594589233,335.86910735885624 C543.9571794589233,335.8688173588562 543.9831494589233,335.8690873588562 543.9857094589233,335.86910735885624 C543.9882694589234,335.8692373588562 544.0142294589234,335.8692373588562 544.0169594589233,335.86910735885624 C544.0276994589233,335.8691873588562 544.0687294589234,335.8688873588562 544.0794594589233,335.86910735885624 C544.0859594589233,335.8692373588562 544.1080894589234,335.8692573588562 544.1107094589233,335.86910735885624 C544.1159494589233,335.8691173588562 544.1367294589234,335.8688973588562 544.1419594589233,335.86910735885624 C544.1576194589234,335.8699973588562 544.1889794589233,335.8694473588562 544.2044594589233,335.86910735885624 C544.2078794589233,335.8687873588562 544.2295794589234,335.8689873588562 544.2357094589233,335.86910735885624 C544.2617094589234,335.8688873588562 544.3036594589233,335.86847735885624 544.3294594589233,335.86910735885624 C544.3360294589233,335.8691273588562 544.3539594589233,335.8693073588562 544.3607094589233,335.86910735885624 C548.7508794589234,335.7371173588562 553.0850694589233,337.2738973588562 556.7044594589233,339.68160735885624 C568.3804194589234,348.92219735885624 569.0845794589234,366.5689873588562 563.9232094589233,379.49410735885624 C553.2262894589234,399.8874773588562 532.8064194589233,412.5591973588562 518.5169594589233,430.2441073588562 C512.4270294589234,437.6155273588562 507.12135945892334,448.8196673588562 496.42320945892334,449.5566073588562 C488.77928945892336,448.6325573588562 489.42130945892336,438.6582773588562 491.26695945892334,433.2441073588562 C500.50459945892334,407.6379373588562 511.26694945892336,382.24440735885617 522.2669594589233,357.24410735885624 C526.0218794589234,347.7638273588562 532.1053294589233,336.3282373588562 543.7044594589233,335.93160735885624 C543.7074094589234,335.9316873588562 543.7330194589233,335.9315973588562 543.7357094589233,335.93160735885624 C543.7388994589234,335.9317073588562 543.7642094589233,335.9315973588562 543.7669594589233,335.93160735885624 C543.7703994589233,335.93172735885616 543.7953894589234,335.9315873588562 543.7982094589233,335.93160735885624 C543.8033194589234,335.9206873588562 543.8241694589233,335.88025735885617 543.8294594589233,335.86910735885624 zM227.11070945892334,383.65035735885624 C227.12702945892335,383.6501373588562 227.16163945892333,383.6502573588562 227.17320945892334,383.65035735885624 C227.21096945892333,383.6516373588562 227.25585945892334,383.65344735885617 227.29820945892334,383.65035735885624 C227.36649945892333,383.64538735885617 227.44806945892333,383.6547873588562 227.51695945892334,383.65035735885624 C227.58638945892335,383.6458873588562 227.66567945892334,383.6542873588562 227.73570945892334,383.65035735885624 C227.80628945892335,383.64639735885623 227.88326945892334,383.6537773588562 227.95445945892334,383.65035735885624 C228.02620945892335,383.6469173588562 228.10084945892334,383.6532573588562 228.17320945892334,383.65035735885624 C228.32022945892334,383.6444673588562 228.46118945892334,383.6540473588562 228.61070945892334,383.65035735885624 C233.71063945892334,383.5243373588562 240.25077945892335,384.6654773588562 247.45445945892334,386.05660735885624 C268.06056945892334,390.0359273588562 265.2526494589233,405.6737873588562 296.20445945892334,422.5566073588562 C327.15628945892337,439.4394173588562 359.5208594589233,443.6431873588562 351.07945945892334,459.1191073588562 C342.6380494589233,474.5950173588562 316.51845945892336,459.7844573588562 276.51695945892334,447.8691073588562 C250.39409945892334,440.0878273588562 228.50607945892335,427.1107073588562 220.23570945892334,404.2753573588562 C214.85410945892335,389.41623735885616 218.58128945892335,384.3454473588562 227.11070945892334,383.65035735885624 zM199.36070945892334,396.0566073588562 L281.92320945892334,651.7441073588562 L258.04820945892334,660.6816073588562 L173.48570945892334,405.0253573588562 L199.36070945892334,396.0566073588562 zM160.54820945892334,416.9628573588562 L195.36070945892334,524.4003573588561 C158.55201945892333,501.5192773588562 137.66712545892335,478.6422873588562 160.54820945892334,416.9628573588562 zM416.23570945892334,427.4003573588562 C430.16332945892333,452.2710973588562 478.41004945892337,465.2119373588562 481.89195945892334,489.0878573588562 C485.37385945892333,512.9637673588562 460.00639945892334,521.4074473588562 463.98570945892334,540.8066073588561 C467.96502945892337,560.2057873588562 470.4457294589233,550.8642673588562 473.92320945892334,567.1816073588561 C480.3895994589233,597.5239073588561 420.19411945892335,607.4745573588561 418.20445945892334,573.6503573588561 C416.9714894589233,552.9980173588563 431.15509945892336,552.7654673588562 427.67320945892334,538.8378573588561 C424.19129945892337,524.9102473588562 381.89476945892335,516.9245373588562 376.42320945892334,497.5253573588562 C370.9516494589233,478.1261873588562 397.33393945892334,450.7788473588562 416.23570945892334,427.4003573588562 zM501.17320945892334,538.4316073588561 C501.1772694589233,538.4313773588563 501.2006194589233,538.4315573588563 501.20445945892334,538.4316073588561 C501.2207194589233,538.4318573588562 501.25778945892336,538.4319973588563 501.26695945892334,538.4316073588561 C501.2710394589233,538.4314073588562 501.2943694589233,538.4315573588563 501.29820945892334,538.4316073588561 C501.3091394589233,538.4323773588562 501.34842945892336,538.4320573588561 501.36070945892334,538.4316073588561 C501.36480945892333,538.4314273588561 501.38812945892334,538.4315673588562 501.39195945892334,538.4316073588561 C501.40280945892334,538.4322673588563 501.4421294589233,538.4319773588562 501.45445945892334,538.4316073588561 C501.45857945892334,538.4314473588562 501.4818894589233,538.4315773588562 501.48570945892334,538.4316073588561 C501.49648945892335,538.4321573588562 501.53582945892333,538.4318973588562 501.54820945892334,538.4316073588561 C501.65985945892334,538.4235573588562 501.77924945892335,538.4335873588561 501.89195945892334,538.4316073588561 C502.17016945892334,538.4267273588562 502.42137945892335,538.4601473588561 502.70445945892334,538.4941073588561 C518.3137294589233,538.5597073588563 533.2300094589234,545.0788773588562 548.0482094589233,549.4316073588561 C569.6285094589233,557.5206973588562 592.2632094589234,562.3969973588562 613.2357094589233,571.8378573588561 C631.7770494589233,580.1210573588562 651.0040494589233,594.6476073588562 653.2044494589234,616.4003573588561 C653.1817494589234,622.7358573588563 655.8679494589234,631.5128473588562 650.3294494589234,636.3066073588561 C644.5555494589233,638.7950373588562 637.4896494589234,637.8792773588561 631.5482494589234,636.3691073588561 C614.8669794589233,628.0976573588562 601.9860694589233,613.8472273588561 587.2669594589233,602.6191073588561 C570.9451294589234,588.0662973588562 551.4369194589233,578.1506373588562 531.7044594589233,569.1191073588561 C519.8715094589234,562.6614773588562 505.9968194589233,558.2577273588562 496.82945945892334,548.1503573588561 C493.3591394589233,544.4219873588562 496.7293894589233,539.0623673588561 501.17320945892334,538.4316073588561 zM382.51695945892334,543.0566073588561 C382.59721945892335,543.0506873588562 382.6880294589233,543.0607073588562 382.76695945892334,543.0566073588561 C384.9537694589233,542.9429573588561 386.6115294589233,543.5499673588562 387.64195945892334,544.9628573588561 C399.01359945892335,560.5551973588563 367.9603194589233,578.7317273588562 355.29820945892334,605.4628573588561 C342.6360894589233,632.1939673588562 335.58400945892333,675.8066073588562 325.73570945892334,675.8066073588562 C316.30506945892336,675.8066173588562 305.3046094589233,666.4116773588562 299.11070945892334,653.6503573588562 L294.79820945892334,640.2441073588561 C294.05175945892336,635.7500473588561 293.99033945892336,631.1345273588562 294.79820945892334,626.5566073588561 C298.59185945892335,605.0592473588563 362.05088945892334,544.5665973588561 382.51695945892334,543.0566073588561 zM223.23570945892334,623.8691073588561 L233.17320945892334,651.7441073588562 C223.22489945892335,685.5683173588562 224.21097945892333,707.2737373588562 197.36070945892334,685.5566073588562 C163.53650945892332,658.1987873588562 183.52213945892333,651.7682473588562 196.23570945892334,642.5253573588561 C206.29186945892334,635.2144373588562 215.77448945892334,629.3406773588563 223.23570945892334,623.8691073588561 z" id="path2417"/>
  </g></g></svg>